<svg xmlns="http://www.w3.org/2000/svg" version="1.1" xmlns:xlink="http://www.w3.org/1999/xlink" xmlns:svgjs="http://svgjs.com/svgjs" width="1440" height="560" preserveAspectRatio="none" viewBox="0 0 1440 560"><g mask="url(&quot;#SvgjsMask1048&quot;)" fill="none"><rect width="1440" height="560" x="0" y="0" fill="#0e2a47"></rect><path d="M369 513L80 224" stroke-width="8" stroke="url(#SvgjsLinearGradient1049)" stroke-linecap="round" class="TopLeft"></path><path d="M598 70L387 -141" stroke-width="8" stroke="url(#SvgjsLinearGradient1050)" stroke-linecap="round" class="BottomRight"></path><path d="M595 544L813 762" stroke-width="8" stroke="url(#SvgjsLinearGradient1049)" stroke-linecap="round" class="TopLeft"></path><path d="M1221 311L1398 488" stroke-width="10" stroke="url(#SvgjsLinearGradient1050)" stroke-linecap="round" class="BottomRight"></path><path d="M1381 447L990 56" stroke-width="10" stroke="url(#SvgjsLinearGradient1049)" stroke-linecap="round" class="TopLeft"></path><path d="M887 379L1267 759" stroke-width="8" stroke="url(#SvgjsLinearGradient1050)" stroke-linecap="round" class="BottomRight"></path><path d="M166 545L547 926" stroke-width="8" stroke="url(#SvgjsLinearGradient1049)" stroke-linecap="round" class="TopLeft"></path><path d="M352 412L564 624" stroke-width="8" stroke="url(#SvgjsLinearGradient1050)" stroke-linecap="round" class="BottomRight"></path><path d="M757 374L531 148" stroke-width="6" stroke="url(#SvgjsLinearGradient1049)" stroke-linecap="round" class="TopLeft"></path><path d="M904 230L492 -182" stroke-width="6" stroke="url(#SvgjsLinearGradient1050)" stroke-linecap="round" class="BottomRight"></path><path d="M1156 59L947 -150" stroke-width="10" stroke="url(#SvgjsLinearGradient1049)" stroke-linecap="round" class="TopLeft"></path><path d="M373 8L571 206" stroke-width="10" stroke="url(#SvgjsLinearGradient1049)" stroke-linecap="round" class="TopLeft"></path><path d="M248 548L69 369" stroke-width="6" stroke="url(#SvgjsLinearGradient1050)" stroke-linecap="round" class="BottomRight"></path><path d="M1127 449L1422 744" stroke-width="8" stroke="url(#SvgjsLinearGradient1050)" stroke-linecap="round" class="BottomRight"></path><path d="M106 184L386 464" stroke-width="10" stroke="url(#SvgjsLinearGradient1049)" stroke-linecap="round" class="TopLeft"></path><path d="M1043 161L652 -230" stroke-width="8" stroke="url(#SvgjsLinearGradient1050)" stroke-linecap="round" class="BottomRight"></path><path d="M802 23L500 -279" stroke-width="8" stroke="url(#SvgjsLinearGradient1050)" stroke-linecap="round" class="BottomRight"></path><path d="M1121 173L1357 409" stroke-width="6" stroke="url(#SvgjsLinearGradient1050)" stroke-linecap="round" class="BottomRight"></path><path d="M1109 478L1392 761" stroke-width="6" stroke="url(#SvgjsLinearGradient1050)" stroke-linecap="round" class="BottomRight"></path><path d="M632 267L1004 639" stroke-width="6" stroke="url(#SvgjsLinearGradient1049)" stroke-linecap="round" class="TopLeft"></path><path d="M509 148L258 -103" stroke-width="10" stroke="url(#SvgjsLinearGradient1049)" stroke-linecap="round" class="TopLeft"></path><path d="M1345 118L1025 -202" stroke-width="6" stroke="url(#SvgjsLinearGradient1049)" stroke-linecap="round" class="TopLeft"></path><path d="M189 355L-209 -43" stroke-width="10" stroke="url(#SvgjsLinearGradient1050)" stroke-linecap="round" class="BottomRight"></path><path d="M1047 221L865 39" stroke-width="10" stroke="url(#SvgjsLinearGradient1050)" stroke-linecap="round" class="BottomRight"></path><path d="M596 5L1010 419" stroke-width="10" stroke="url(#SvgjsLinearGradient1050)" stroke-linecap="round" class="BottomRight"></path><path d="M845 498L617 270" stroke-width="6" stroke="url(#SvgjsLinearGradient1049)" stroke-linecap="round" class="TopLeft"></path><path d="M1227 423L1530 726" stroke-width="8" stroke="url(#SvgjsLinearGradient1049)" stroke-linecap="round" class="TopLeft"></path><path d="M1125 430L807 112" stroke-width="10" stroke="url(#SvgjsLinearGradient1049)" stroke-linecap="round" class="TopLeft"></path><path d="M1056 459L1423 826" stroke-width="8" stroke="url(#SvgjsLinearGradient1049)" stroke-linecap="round" class="TopLeft"></path><path d="M693 557L961 825" stroke-width="8" stroke="url(#SvgjsLinearGradient1049)" stroke-linecap="round" class="TopLeft"></path><path d="M1162 307L943 88" stroke-width="10" stroke="url(#SvgjsLinearGradient1050)" stroke-linecap="round" class="BottomRight"></path><path d="M965 100L1276 411" stroke-width="8" stroke="url(#SvgjsLinearGradient1050)" stroke-linecap="round" class="BottomRight"></path><path d="M663 384L339 60" stroke-width="8" stroke="url(#SvgjsLinearGradient1050)" stroke-linecap="round" class="BottomRight"></path><path d="M96 342L-106 140" stroke-width="8" stroke="url(#SvgjsLinearGradient1050)" stroke-linecap="round" class="BottomRight"></path><path d="M782 511L1152 881" stroke-width="10" stroke="url(#SvgjsLinearGradient1049)" stroke-linecap="round" class="TopLeft"></path><path d="M85 456L393 764" stroke-width="6" stroke="url(#SvgjsLinearGradient1050)" stroke-linecap="round" class="BottomRight"></path><path d="M1031 40L1201 210" stroke-width="6" stroke="url(#SvgjsLinearGradient1049)" stroke-linecap="round" class="TopLeft"></path><path d="M251 543L547 839" stroke-width="6" stroke="url(#SvgjsLinearGradient1049)" stroke-linecap="round" class="TopLeft"></path><path d="M933 59L1339 465" stroke-width="6" stroke="url(#SvgjsLinearGradient1049)" stroke-linecap="round" class="TopLeft"></path></g><defs><mask id="SvgjsMask1048"><rect width="1440" height="560" fill="#ffffff"></rect></mask><linearGradient x1="100%" y1="100%" x2="0%" y2="0%" id="SvgjsLinearGradient1049"><stop stop-color="rgba(10, 191, 133, 0)" offset="0"></stop><stop stop-color="rgba(10, 191, 133, 1)" offset="1"></stop></linearGradient><linearGradient x1="0%" y1="0%" x2="100%" y2="100%" id="SvgjsLinearGradient1050"><stop stop-color="rgba(10, 191, 133, 0)" offset="0"></stop><stop stop-color="rgba(10, 191, 133, 1)" offset="1"></stop></linearGradient></defs></svg>