<svg xmlns="http://www.w3.org/2000/svg" version="1.1" xmlns:xlink="http://www.w3.org/1999/xlink" xmlns:svgjs="http://svgjs.com/svgjs" width="1440" height="560" preserveAspectRatio="none" viewBox="0 0 1440 560"><g mask="url(&quot;#SvgjsMask1015&quot;)" fill="none"><rect width="1440" height="560" x="0" y="0" fill="#0e2a47"></rect><path d="M1086 547L801 262" stroke-width="10" stroke="url(#SvgjsLinearGradient1016)" stroke-linecap="round" class="TopLeft"></path><path d="M1308 53L1556 301" stroke-width="10" stroke="url(#SvgjsLinearGradient1016)" stroke-linecap="round" class="TopLeft"></path><path d="M1283 238L1561 516" stroke-width="6" stroke="url(#SvgjsLinearGradient1016)" stroke-linecap="round" class="TopLeft"></path><path d="M972 277L730 35" stroke-width="8" stroke="url(#SvgjsLinearGradient1017)" stroke-linecap="round" class="BottomRight"></path><path d="M852 337L593 78" stroke-width="8" stroke="url(#SvgjsLinearGradient1017)" stroke-linecap="round" class="BottomRight"></path><path d="M611 11L901 301" stroke-width="6" stroke="url(#SvgjsLinearGradient1017)" stroke-linecap="round" class="BottomRight"></path><path d="M433 459L16 42" stroke-width="10" stroke="url(#SvgjsLinearGradient1016)" stroke-linecap="round" class="TopLeft"></path><path d="M1381 294L1217 130" stroke-width="10" stroke="url(#SvgjsLinearGradient1017)" stroke-linecap="round" class="BottomRight"></path><path d="M1102 282L1292 472" stroke-width="8" stroke="url(#SvgjsLinearGradient1016)" stroke-linecap="round" class="TopLeft"></path><path d="M538 419L738 619" stroke-width="10" stroke="url(#SvgjsLinearGradient1017)" stroke-linecap="round" class="BottomRight"></path><path d="M195 436L-28 213" stroke-width="10" stroke="url(#SvgjsLinearGradient1017)" stroke-linecap="round" class="BottomRight"></path><path d="M524 426L342 244" stroke-width="8" stroke="url(#SvgjsLinearGradient1016)" stroke-linecap="round" class="TopLeft"></path><path d="M65 337L-222 50" stroke-width="6" stroke="url(#SvgjsLinearGradient1016)" stroke-linecap="round" class="TopLeft"></path><path d="M133 135L-94 -92" stroke-width="6" stroke="url(#SvgjsLinearGradient1016)" stroke-linecap="round" class="TopLeft"></path><path d="M1256 239L920 -97" stroke-width="8" stroke="url(#SvgjsLinearGradient1016)" stroke-linecap="round" class="TopLeft"></path><path d="M642 142L481 -19" stroke-width="6" stroke="url(#SvgjsLinearGradient1016)" stroke-linecap="round" class="TopLeft"></path><path d="M176 441L560 825" stroke-width="10" stroke="url(#SvgjsLinearGradient1016)" stroke-linecap="round" class="TopLeft"></path><path d="M355 23L740 408" stroke-width="10" stroke="url(#SvgjsLinearGradient1016)" stroke-linecap="round" class="TopLeft"></path><path d="M695 323L373 1" stroke-width="6" stroke="url(#SvgjsLinearGradient1017)" stroke-linecap="round" class="BottomRight"></path><path d="M1208 84L1554 430" stroke-width="8" stroke="url(#SvgjsLinearGradient1017)" stroke-linecap="round" class="BottomRight"></path><path d="M350 157L504 311" stroke-width="10" stroke="url(#SvgjsLinearGradient1016)" stroke-linecap="round" class="TopLeft"></path><path d="M947 201L681 -65" stroke-width="10" stroke="url(#SvgjsLinearGradient1016)" stroke-linecap="round" class="TopLeft"></path><path d="M300 433L609 742" stroke-width="6" stroke="url(#SvgjsLinearGradient1017)" stroke-linecap="round" class="BottomRight"></path><path d="M1223 447L941 165" stroke-width="10" stroke="url(#SvgjsLinearGradient1016)" stroke-linecap="round" class="TopLeft"></path><path d="M307 386L697 776" stroke-width="8" stroke="url(#SvgjsLinearGradient1017)" stroke-linecap="round" class="BottomRight"></path><path d="M1331 431L966 66" stroke-width="8" stroke="url(#SvgjsLinearGradient1016)" stroke-linecap="round" class="TopLeft"></path><path d="M885 62L1225 402" stroke-width="10" stroke="url(#SvgjsLinearGradient1016)" stroke-linecap="round" class="TopLeft"></path><path d="M361 526L-41 124" stroke-width="10" stroke="url(#SvgjsLinearGradient1016)" stroke-linecap="round" class="TopLeft"></path><path d="M1361 104L1563 306" stroke-width="10" stroke="url(#SvgjsLinearGradient1016)" stroke-linecap="round" class="TopLeft"></path><path d="M200 62L-219 -357" stroke-width="10" stroke="url(#SvgjsLinearGradient1017)" stroke-linecap="round" class="BottomRight"></path><path d="M847 518L1049 720" stroke-width="6" stroke="url(#SvgjsLinearGradient1016)" stroke-linecap="round" class="TopLeft"></path><path d="M1080 349L808 77" stroke-width="10" stroke="url(#SvgjsLinearGradient1017)" stroke-linecap="round" class="BottomRight"></path><path d="M321 528L173 380" stroke-width="10" stroke="url(#SvgjsLinearGradient1016)" stroke-linecap="round" class="TopLeft"></path><path d="M515 151L302 -62" stroke-width="6" stroke="url(#SvgjsLinearGradient1016)" stroke-linecap="round" class="TopLeft"></path><path d="M670 411L951 692" stroke-width="8" stroke="url(#SvgjsLinearGradient1017)" stroke-linecap="round" class="BottomRight"></path><path d="M294 407L714 827" stroke-width="10" stroke="url(#SvgjsLinearGradient1017)" stroke-linecap="round" class="BottomRight"></path><path d="M475 347L248 120" stroke-width="10" stroke="url(#SvgjsLinearGradient1016)" stroke-linecap="round" class="TopLeft"></path><path d="M963 501L703 241" stroke-width="8" stroke="url(#SvgjsLinearGradient1016)" stroke-linecap="round" class="TopLeft"></path><path d="M1083 388L1295 600" stroke-width="10" stroke="url(#SvgjsLinearGradient1017)" stroke-linecap="round" class="BottomRight"></path></g><defs><mask id="SvgjsMask1015"><rect width="1440" height="560" fill="#ffffff"></rect></mask><linearGradient x1="100%" y1="100%" x2="0%" y2="0%" id="SvgjsLinearGradient1016"><stop stop-color="rgba(187, 178, 27, 0)" offset="0"></stop><stop stop-color="rgba(187, 178, 27, 1)" offset="1"></stop></linearGradient><linearGradient x1="0%" y1="0%" x2="100%" y2="100%" id="SvgjsLinearGradient1017"><stop stop-color="rgba(187, 178, 27, 0)" offset="0"></stop><stop stop-color="rgba(187, 178, 27, 1)" offset="1"></stop></linearGradient></defs></svg>