<svg xmlns="http://www.w3.org/2000/svg" version="1.1" xmlns:xlink="http://www.w3.org/1999/xlink" xmlns:svgjs="http://svgjs.com/svgjs" width="1440" height="560" preserveAspectRatio="none" viewBox="0 0 1440 560"><g mask="url(&quot;#SvgjsMask1021&quot;)" fill="none"><rect width="1440" height="560" x="0" y="0" fill="#0e2a47"></rect><path d="M335 373L334 -22" stroke-width="6" stroke="url(#SvgjsLinearGradient1022)" stroke-linecap="round" class="Down"></path><path d="M1418 42L1417 459" stroke-width="8" stroke="url(#SvgjsLinearGradient1022)" stroke-linecap="round" class="Down"></path><path d="M234 538L233 806" stroke-width="6" stroke="url(#SvgjsLinearGradient1023)" stroke-linecap="round" class="Up"></path><path d="M61 463L60 702" stroke-width="8" stroke="url(#SvgjsLinearGradient1022)" stroke-linecap="round" class="Down"></path><path d="M324 437L323 150" stroke-width="10" stroke="url(#SvgjsLinearGradient1022)" stroke-linecap="round" class="Down"></path><path d="M720 558L719 948" stroke-width="10" stroke="url(#SvgjsLinearGradient1023)" stroke-linecap="round" class="Up"></path><path d="M1014 55L1013 -101" stroke-width="6" stroke="url(#SvgjsLinearGradient1022)" stroke-linecap="round" class="Down"></path><path d="M923 338L922 704" stroke-width="6" stroke="url(#SvgjsLinearGradient1022)" stroke-linecap="round" class="Down"></path><path d="M804 114L803 -93" stroke-width="8" stroke="url(#SvgjsLinearGradient1023)" stroke-linecap="round" class="Up"></path><path d="M158 70L157 441" stroke-width="10" stroke="url(#SvgjsLinearGradient1022)" stroke-linecap="round" class="Down"></path><path d="M792 248L791 57" stroke-width="10" stroke="url(#SvgjsLinearGradient1022)" stroke-linecap="round" class="Down"></path><path d="M190 118L189 402" stroke-width="8" stroke="url(#SvgjsLinearGradient1023)" stroke-linecap="round" class="Up"></path><path d="M1107 536L1106 708" stroke-width="8" stroke="url(#SvgjsLinearGradient1023)" stroke-linecap="round" class="Up"></path><path d="M1274 484L1273 74" stroke-width="10" stroke="url(#SvgjsLinearGradient1023)" stroke-linecap="round" class="Up"></path><path d="M633 261L632 410" stroke-width="6" stroke="url(#SvgjsLinearGradient1023)" stroke-linecap="round" class="Up"></path><path d="M302 543L301 733" stroke-width="8" stroke="url(#SvgjsLinearGradient1023)" stroke-linecap="round" class="Up"></path><path d="M304 405L303 114" stroke-width="6" stroke="url(#SvgjsLinearGradient1023)" stroke-linecap="round" class="Up"></path><path d="M773 114L772 443" stroke-width="6" stroke="url(#SvgjsLinearGradient1023)" stroke-linecap="round" class="Up"></path><path d="M846 281L845 548" stroke-width="6" stroke="url(#SvgjsLinearGradient1022)" stroke-linecap="round" class="Down"></path><path d="M459 370L458 153" stroke-width="10" stroke="url(#SvgjsLinearGradient1023)" stroke-linecap="round" class="Up"></path><path d="M1389 338L1388 185" stroke-width="8" stroke="url(#SvgjsLinearGradient1022)" stroke-linecap="round" class="Down"></path><path d="M1178 484L1177 93" stroke-width="8" stroke="url(#SvgjsLinearGradient1023)" stroke-linecap="round" class="Up"></path><path d="M531 530L530 156" stroke-width="6" stroke="url(#SvgjsLinearGradient1023)" stroke-linecap="round" class="Up"></path><path d="M448 528L447 337" stroke-width="8" stroke="url(#SvgjsLinearGradient1023)" stroke-linecap="round" class="Up"></path><path d="M627 409L626 33" stroke-width="10" stroke="url(#SvgjsLinearGradient1022)" stroke-linecap="round" class="Down"></path><path d="M705 171L704 331" stroke-width="10" stroke="url(#SvgjsLinearGradient1023)" stroke-linecap="round" class="Up"></path><path d="M859 61L858 -98" stroke-width="8" stroke="url(#SvgjsLinearGradient1022)" stroke-linecap="round" class="Down"></path><path d="M1278 156L1277 367" stroke-width="10" stroke="url(#SvgjsLinearGradient1023)" stroke-linecap="round" class="Up"></path><path d="M443 228L442 -28" stroke-width="10" stroke="url(#SvgjsLinearGradient1022)" stroke-linecap="round" class="Down"></path><path d="M32 171L31 -76" stroke-width="10" stroke="url(#SvgjsLinearGradient1022)" stroke-linecap="round" class="Down"></path><path d="M923 474L922 181" stroke-width="8" stroke="url(#SvgjsLinearGradient1023)" stroke-linecap="round" class="Up"></path><path d="M786 546L785 817" stroke-width="10" stroke="url(#SvgjsLinearGradient1023)" stroke-linecap="round" class="Up"></path><path d="M290 536L289 846" stroke-width="8" stroke="url(#SvgjsLinearGradient1022)" stroke-linecap="round" class="Down"></path><path d="M307 334L306 82" stroke-width="6" stroke="url(#SvgjsLinearGradient1023)" stroke-linecap="round" class="Up"></path><path d="M1113 415L1112 562" stroke-width="6" stroke="url(#SvgjsLinearGradient1023)" stroke-linecap="round" class="Up"></path><path d="M692 237L691 592" stroke-width="6" stroke="url(#SvgjsLinearGradient1023)" stroke-linecap="round" class="Up"></path></g><defs><mask id="SvgjsMask1021"><rect width="1440" height="560" fill="#ffffff"></rect></mask><linearGradient x1="0%" y1="0%" x2="0%" y2="100%" id="SvgjsLinearGradient1022"><stop stop-color="rgba(28, 83, 142, 0)" offset="0"></stop><stop stop-color="#1c538e" offset="1"></stop></linearGradient><linearGradient x1="0%" y1="100%" x2="0%" y2="0%" id="SvgjsLinearGradient1023"><stop stop-color="rgba(28, 83, 142, 0)" offset="0"></stop><stop stop-color="#1c538e" offset="1"></stop></linearGradient></defs></svg>