<svg xmlns="http://www.w3.org/2000/svg" version="1.1" xmlns:xlink="http://www.w3.org/1999/xlink" xmlns:svgjs="http://svgjs.com/svgjs" width="1440" height="560" preserveAspectRatio="none" viewBox="0 0 1440 560"><g mask="url(&quot;#SvgjsMask1012&quot;)" fill="none"><rect width="1440" height="560" x="0" y="0" fill="#0e2a47"></rect><path d="M9 259L415 665" stroke-width="6" stroke="url(#SvgjsLinearGradient1013)" stroke-linecap="round" class="TopLeft"></path><path d="M607 74L267 -266" stroke-width="8" stroke="url(#SvgjsLinearGradient1014)" stroke-linecap="round" class="BottomRight"></path><path d="M1153 524L1544 915" stroke-width="10" stroke="url(#SvgjsLinearGradient1014)" stroke-linecap="round" class="BottomRight"></path><path d="M1305 246L1147 88" stroke-width="8" stroke="url(#SvgjsLinearGradient1013)" stroke-linecap="round" class="TopLeft"></path><path d="M1042 295L1183 436" stroke-width="8" stroke="url(#SvgjsLinearGradient1013)" stroke-linecap="round" class="TopLeft"></path><path d="M554 446L755 647" stroke-width="10" stroke="url(#SvgjsLinearGradient1014)" stroke-linecap="round" class="BottomRight"></path><path d="M723 387L1079 743" stroke-width="10" stroke="url(#SvgjsLinearGradient1014)" stroke-linecap="round" class="BottomRight"></path><path d="M1075 27L1345 297" stroke-width="6" stroke="url(#SvgjsLinearGradient1013)" stroke-linecap="round" class="TopLeft"></path><path d="M1351 518L1165 332" stroke-width="10" stroke="url(#SvgjsLinearGradient1014)" stroke-linecap="round" class="BottomRight"></path><path d="M664 43L941 320" stroke-width="8" stroke="url(#SvgjsLinearGradient1014)" stroke-linecap="round" class="BottomRight"></path><path d="M996 508L823 335" stroke-width="6" stroke="url(#SvgjsLinearGradient1013)" stroke-linecap="round" class="TopLeft"></path><path d="M1248 400L1522 674" stroke-width="10" stroke="url(#SvgjsLinearGradient1014)" stroke-linecap="round" class="BottomRight"></path><path d="M492 370L834 712" stroke-width="10" stroke="url(#SvgjsLinearGradient1013)" stroke-linecap="round" class="TopLeft"></path><path d="M133 37L341 245" stroke-width="6" stroke="url(#SvgjsLinearGradient1014)" stroke-linecap="round" class="BottomRight"></path><path d="M513 478L745 710" stroke-width="8" stroke="url(#SvgjsLinearGradient1013)" stroke-linecap="round" class="TopLeft"></path><path d="M775 465L626 316" stroke-width="10" stroke="url(#SvgjsLinearGradient1013)" stroke-linecap="round" class="TopLeft"></path><path d="M124 171L-23 24" stroke-width="10" stroke="url(#SvgjsLinearGradient1013)" stroke-linecap="round" class="TopLeft"></path><path d="M1144 302L1553 711" stroke-width="10" stroke="url(#SvgjsLinearGradient1014)" stroke-linecap="round" class="BottomRight"></path><path d="M165 297L-10 122" stroke-width="8" stroke="url(#SvgjsLinearGradient1013)" stroke-linecap="round" class="TopLeft"></path><path d="M984 295L1298 609" stroke-width="6" stroke="url(#SvgjsLinearGradient1014)" stroke-linecap="round" class="BottomRight"></path><path d="M195 93L-29 -131" stroke-width="10" stroke="url(#SvgjsLinearGradient1014)" stroke-linecap="round" class="BottomRight"></path><path d="M561 24L363 -174" stroke-width="8" stroke="url(#SvgjsLinearGradient1013)" stroke-linecap="round" class="TopLeft"></path><path d="M901 66L1310 475" stroke-width="10" stroke="url(#SvgjsLinearGradient1014)" stroke-linecap="round" class="BottomRight"></path><path d="M83 315L228 460" stroke-width="8" stroke="url(#SvgjsLinearGradient1014)" stroke-linecap="round" class="BottomRight"></path><path d="M1349 86L1522 259" stroke-width="6" stroke="url(#SvgjsLinearGradient1014)" stroke-linecap="round" class="BottomRight"></path><path d="M1174 185L966 -23" stroke-width="6" stroke="url(#SvgjsLinearGradient1013)" stroke-linecap="round" class="TopLeft"></path><path d="M387 137L590 340" stroke-width="10" stroke="url(#SvgjsLinearGradient1014)" stroke-linecap="round" class="BottomRight"></path><path d="M445 63L607 225" stroke-width="10" stroke="url(#SvgjsLinearGradient1013)" stroke-linecap="round" class="TopLeft"></path><path d="M1331 430L1023 122" stroke-width="8" stroke="url(#SvgjsLinearGradient1013)" stroke-linecap="round" class="TopLeft"></path><path d="M589 545L843 799" stroke-width="6" stroke="url(#SvgjsLinearGradient1014)" stroke-linecap="round" class="BottomRight"></path><path d="M1360 17L1099 -244" stroke-width="6" stroke="url(#SvgjsLinearGradient1013)" stroke-linecap="round" class="TopLeft"></path><path d="M445 515L710 780" stroke-width="6" stroke="url(#SvgjsLinearGradient1013)" stroke-linecap="round" class="TopLeft"></path><path d="M1315 311L1100 96" stroke-width="8" stroke="url(#SvgjsLinearGradient1014)" stroke-linecap="round" class="BottomRight"></path><path d="M344 530L57 243" stroke-width="6" stroke="url(#SvgjsLinearGradient1014)" stroke-linecap="round" class="BottomRight"></path><path d="M1188 46L1550 408" stroke-width="8" stroke="url(#SvgjsLinearGradient1014)" stroke-linecap="round" class="BottomRight"></path><path d="M990 158L834 2" stroke-width="10" stroke="url(#SvgjsLinearGradient1013)" stroke-linecap="round" class="TopLeft"></path><path d="M1049 204L1286 441" stroke-width="6" stroke="url(#SvgjsLinearGradient1014)" stroke-linecap="round" class="BottomRight"></path><path d="M128 228L411 511" stroke-width="10" stroke="url(#SvgjsLinearGradient1014)" stroke-linecap="round" class="BottomRight"></path><path d="M64 293L-354 -125" stroke-width="10" stroke="url(#SvgjsLinearGradient1013)" stroke-linecap="round" class="TopLeft"></path></g><defs><mask id="SvgjsMask1012"><rect width="1440" height="560" fill="#ffffff"></rect></mask><linearGradient x1="100%" y1="100%" x2="0%" y2="0%" id="SvgjsLinearGradient1013"><stop stop-color="rgba(142, 28, 134, 0)" offset="0"></stop><stop stop-color="rgba(142, 28, 134, 1)" offset="1"></stop></linearGradient><linearGradient x1="0%" y1="0%" x2="100%" y2="100%" id="SvgjsLinearGradient1014"><stop stop-color="rgba(142, 28, 134, 0)" offset="0"></stop><stop stop-color="rgba(142, 28, 134, 1)" offset="1"></stop></linearGradient></defs></svg>