<svg xmlns="http://www.w3.org/2000/svg" version="1.1" xmlns:xlink="http://www.w3.org/1999/xlink" xmlns:svgjs="http://svgjs.com/svgjs" width="1440" height="560" preserveAspectRatio="none" viewBox="0 0 1440 560"><g mask="url(&quot;#SvgjsMask1045&quot;)" fill="none"><rect width="1440" height="560" x="0" y="0" fill="#0e2a47"></rect><path d="M782 482L950 650" stroke-width="10" stroke="url(#SvgjsLinearGradient1046)" stroke-linecap="round" class="TopLeft"></path><path d="M420 38L625 243" stroke-width="10" stroke="url(#SvgjsLinearGradient1047)" stroke-linecap="round" class="BottomRight"></path><path d="M239 451L620 832" stroke-width="8" stroke="url(#SvgjsLinearGradient1046)" stroke-linecap="round" class="TopLeft"></path><path d="M870 47L659 -164" stroke-width="8" stroke="url(#SvgjsLinearGradient1047)" stroke-linecap="round" class="BottomRight"></path><path d="M926 395L1144 613" stroke-width="6" stroke="url(#SvgjsLinearGradient1047)" stroke-linecap="round" class="BottomRight"></path><path d="M94 556L503 965" stroke-width="10" stroke="url(#SvgjsLinearGradient1046)" stroke-linecap="round" class="TopLeft"></path><path d="M106 308L-106 96" stroke-width="6" stroke="url(#SvgjsLinearGradient1047)" stroke-linecap="round" class="BottomRight"></path><path d="M253 418L-76 89" stroke-width="6" stroke="url(#SvgjsLinearGradient1046)" stroke-linecap="round" class="TopLeft"></path><path d="M1170 498L1566 894" stroke-width="10" stroke="url(#SvgjsLinearGradient1046)" stroke-linecap="round" class="TopLeft"></path><path d="M196 256L454 514" stroke-width="6" stroke="url(#SvgjsLinearGradient1047)" stroke-linecap="round" class="BottomRight"></path><path d="M1293 171L1632 510" stroke-width="6" stroke="url(#SvgjsLinearGradient1047)" stroke-linecap="round" class="BottomRight"></path><path d="M918 245L772 99" stroke-width="10" stroke="url(#SvgjsLinearGradient1046)" stroke-linecap="round" class="TopLeft"></path><path d="M370 274L25 -71" stroke-width="6" stroke="url(#SvgjsLinearGradient1047)" stroke-linecap="round" class="BottomRight"></path><path d="M573 335L827 589" stroke-width="8" stroke="url(#SvgjsLinearGradient1047)" stroke-linecap="round" class="BottomRight"></path><path d="M836 136L563 -137" stroke-width="10" stroke="url(#SvgjsLinearGradient1046)" stroke-linecap="round" class="TopLeft"></path><path d="M686 255L329 -102" stroke-width="6" stroke="url(#SvgjsLinearGradient1046)" stroke-linecap="round" class="TopLeft"></path><path d="M101 72L384 355" stroke-width="8" stroke="url(#SvgjsLinearGradient1047)" stroke-linecap="round" class="BottomRight"></path><path d="M390 156L117 -117" stroke-width="8" stroke="url(#SvgjsLinearGradient1046)" stroke-linecap="round" class="TopLeft"></path><path d="M261 182L454 375" stroke-width="8" stroke="url(#SvgjsLinearGradient1046)" stroke-linecap="round" class="TopLeft"></path><path d="M541 427L876 762" stroke-width="10" stroke="url(#SvgjsLinearGradient1047)" stroke-linecap="round" class="BottomRight"></path><path d="M439 348L50 -41" stroke-width="8" stroke="url(#SvgjsLinearGradient1047)" stroke-linecap="round" class="BottomRight"></path><path d="M946 487L733 274" stroke-width="6" stroke="url(#SvgjsLinearGradient1047)" stroke-linecap="round" class="BottomRight"></path><path d="M147 116L559 528" stroke-width="8" stroke="url(#SvgjsLinearGradient1046)" stroke-linecap="round" class="TopLeft"></path><path d="M1294 322L1054 82" stroke-width="6" stroke="url(#SvgjsLinearGradient1047)" stroke-linecap="round" class="BottomRight"></path><path d="M206 457L480 731" stroke-width="10" stroke="url(#SvgjsLinearGradient1046)" stroke-linecap="round" class="TopLeft"></path><path d="M1232 292L1034 94" stroke-width="10" stroke="url(#SvgjsLinearGradient1046)" stroke-linecap="round" class="TopLeft"></path><path d="M1269 271L1087 89" stroke-width="6" stroke="url(#SvgjsLinearGradient1047)" stroke-linecap="round" class="BottomRight"></path><path d="M207 277L-201 -131" stroke-width="8" stroke="url(#SvgjsLinearGradient1046)" stroke-linecap="round" class="TopLeft"></path><path d="M1140 398L1427 685" stroke-width="6" stroke="url(#SvgjsLinearGradient1046)" stroke-linecap="round" class="TopLeft"></path><path d="M328 212L-86 -202" stroke-width="8" stroke="url(#SvgjsLinearGradient1046)" stroke-linecap="round" class="TopLeft"></path><path d="M168 327L-121 38" stroke-width="10" stroke="url(#SvgjsLinearGradient1047)" stroke-linecap="round" class="BottomRight"></path><path d="M686 442L444 200" stroke-width="6" stroke="url(#SvgjsLinearGradient1047)" stroke-linecap="round" class="BottomRight"></path><path d="M836 295L1074 533" stroke-width="10" stroke="url(#SvgjsLinearGradient1046)" stroke-linecap="round" class="TopLeft"></path><path d="M621 311L263 -47" stroke-width="8" stroke="url(#SvgjsLinearGradient1047)" stroke-linecap="round" class="BottomRight"></path><path d="M587 326L995 734" stroke-width="10" stroke="url(#SvgjsLinearGradient1047)" stroke-linecap="round" class="BottomRight"></path><path d="M226 385L536 695" stroke-width="10" stroke="url(#SvgjsLinearGradient1047)" stroke-linecap="round" class="BottomRight"></path><path d="M1289 26L1498 235" stroke-width="10" stroke="url(#SvgjsLinearGradient1046)" stroke-linecap="round" class="TopLeft"></path><path d="M210 426L609 825" stroke-width="10" stroke="url(#SvgjsLinearGradient1046)" stroke-linecap="round" class="TopLeft"></path><path d="M21 522L294 795" stroke-width="8" stroke="url(#SvgjsLinearGradient1046)" stroke-linecap="round" class="TopLeft"></path></g><defs><mask id="SvgjsMask1045"><rect width="1440" height="560" fill="#ffffff"></rect></mask><linearGradient x1="100%" y1="100%" x2="0%" y2="0%" id="SvgjsLinearGradient1046"><stop stop-color="rgba(191, 10, 17, 0)" offset="0"></stop><stop stop-color="rgba(191, 10, 17, 1)" offset="1"></stop></linearGradient><linearGradient x1="0%" y1="0%" x2="100%" y2="100%" id="SvgjsLinearGradient1047"><stop stop-color="rgba(191, 10, 17, 0)" offset="0"></stop><stop stop-color="rgba(191, 10, 17, 1)" offset="1"></stop></linearGradient></defs></svg>